<?xml version="1.0" encoding="utf-8"?>
<!-- Generator: Fusion 360, Shaper Origin Export Add-In, Version 1.6.3  -->
<svg xmlns="http://www.w3.org/2000/svg" xmlns:xlink="http://www.w3.org/1999/xlink" xmlns:shaper="http://www.shapertools.com/namespaces/shaper" shaper:fusionaddin="version:1.6.3" width="9cm" height="5.98cm" version="1.1" x="0cm" y="0cm" viewBox="0 0 9 5.98" enable-background="new 0 0 9 5.98" xml:space="preserve"><path d="M9,0 L9,5.98 0,5.98 0,0 9,0z" transform="matrix(1,0,0,-1,-0,5.98)" fill="rgb(0,0,0)" shaper:cutDepth="0.003" stroke-linecap="round" stroke-linejoin="round" /><path d="M0.3125,4.4225 a0.1575,0.1575 0 1,1 0.315,0 a0.1575,0.1575 0 1,1 -0.315,0z" transform="matrix(1,0,0,-1,-0,5.98)" fill="rgb(255,255,255)" stroke="rgb(0,0,0)" stroke-width="0.0010cm" stroke-linecap="round" stroke-linejoin="round" shaper:cutDepth="0.003" /><path d="M8.2525,5.4 a0.1575,0.1575 0 1,1 0.315,0 a0.1575,0.1575 0 1,1 -0.315,0z" transform="matrix(1,0,0,-1,-0,5.98)" fill="rgb(255,255,255)" stroke="rgb(0,0,0)" stroke-width="0.0010cm" stroke-linecap="round" stroke-linejoin="round" shaper:cutDepth="0.003" /><path d="M0.3125,1.5575 a0.1575,0.1575 0 1,1 0.315,0 a0.1575,0.1575 0 1,1 -0.315,0z" transform="matrix(1,0,0,-1,-0,5.98)" fill="rgb(255,255,255)" stroke="rgb(0,0,0)" stroke-width="0.0010cm" stroke-linecap="round" stroke-linejoin="round" shaper:cutDepth="0.003" /><path d="M8.2525,2.115 a0.1575,0.1575 0 1,1 0.315,0 a0.1575,0.1575 0 1,1 -0.315,0z" transform="matrix(1,0,0,-1,-0,5.98)" fill="rgb(255,255,255)" stroke="rgb(0,0,0)" stroke-width="0.0010cm" stroke-linecap="round" stroke-linejoin="round" shaper:cutDepth="0.003" /><path d="M1.307,1.625 L8.06,1.625 8.06,0.366 1.307,0.366 1.307,1.625z" transform="matrix(1,0,0,-1,-0,5.98)" fill="rgb(255,255,255)" stroke="rgb(0,0,0)" stroke-width="0.0010cm" stroke-linecap="round" stroke-linejoin="round" shaper:cutDepth="0.003" /><path d="M0.94,2.635 L0.94,3.642 1.7,3.642 1.7,2.635 0.94,2.635z" transform="matrix(1,0,0,-1,-0,5.98)" fill="rgb(255,255,255)" stroke="rgb(0,0,0)" stroke-width="0.0010cm" stroke-linecap="round" stroke-linejoin="round" shaper:cutDepth="0.003" /><path d="M1.307,5.614 L8.06,5.614 8.06,4.945 1.307,4.945 1.307,5.614z" transform="matrix(1,0,0,-1,-0,5.98)" fill="rgb(255,255,255)" stroke="rgb(0,0,0)" stroke-width="0.0010cm" stroke-linecap="round" stroke-linejoin="round" shaper:cutDepth="0.003" /></svg>