<?xml version="1.0" encoding="utf-8"?>
<!-- Generator: Fusion 360, Shaper Origin Export Add-In, Version 1.5.0  -->
<svg enable-background="new 0 0 9 6.4" height="6.4cm" shaper:fusionaddin="version:1.5.0" version="1.1" viewBox="0 0 9 6.4" width="9cm" x="0cm" xml:space="preserve" xmlns="http://www.w3.org/2000/svg" xmlns:shaper="http://www.shapertools.com/namespaces/shaper" xmlns:xlink="http://www.w3.org/1999/xlink" y="0cm"><path d="M0,0 L9,0 9,6.4 0,6.4 0,0z" fill="rgb(0,0,0)" shaper:cutDepth="0.003" shaper:pathType="exterior" transform="matrix(1,0,0,-1,-0,6.4)" vector-effect="non-scaling-stroke" /><path d="M6.915,5.775 L6.915,5.955 8.06,5.955 8.06,5.055 7.885,5.055 7.885,3.53 8.06,3.53 8.06,1.695 7.885,1.695 7.885,0.445 1.115,0.445 1.115,5.775 6.915,5.775z" fill="rgb(255,255,255)" shaper:cutDepth="0.003" shaper:pathType="interior" stroke="rgb(0,0,0)" transform="matrix(1,0,0,-1,-0,6.4)" vector-effect="non-scaling-stroke" /><path d="M0.3245,1.335 a0.1455,0.1455 0 1,1 0.291,0 a0.1455,0.1455 0 1,1 -0.291,0z" fill="rgb(255,255,255)" shaper:cutDepth="0.003" shaper:pathType="interior" stroke="rgb(0,0,0)" transform="matrix(1,0,0,-1,-0,6.4)" vector-effect="non-scaling-stroke" /><path d="M8.3845,1.335 a0.1455,0.1455 0 1,1 0.291,0 a0.1455,0.1455 0 1,1 -0.291,0z" fill="rgb(255,255,255)" shaper:cutDepth="0.003" shaper:pathType="interior" stroke="rgb(0,0,0)" transform="matrix(1,0,0,-1,-0,6.4)" vector-effect="non-scaling-stroke" /><path d="M0.3245,5.065 a0.1455,0.1455 0 1,1 0.291,0 a0.1455,0.1455 0 1,1 -0.291,0z" fill="rgb(255,255,255)" shaper:cutDepth="0.003" shaper:pathType="interior" stroke="rgb(0,0,0)" transform="matrix(1,0,0,-1,-0,6.4)" vector-effect="non-scaling-stroke" /><path d="M8.3845,5.065 a0.1455,0.1455 0 1,1 0.291,0 a0.1455,0.1455 0 1,1 -0.291,0z" fill="rgb(255,255,255)" shaper:cutDepth="0.003" shaper:pathType="interior" stroke="rgb(0,0,0)" transform="matrix(1,0,0,-1,-0,6.4)" vector-effect="non-scaling-stroke" /></svg>