<?xml version="1.0" encoding="utf-8"?>
<!-- Generator: Fusion 360, Shaper Origin Export Add-In, Version 1.6.3  -->
<svg xmlns="http://www.w3.org/2000/svg" xmlns:xlink="http://www.w3.org/1999/xlink" xmlns:shaper="http://www.shapertools.com/namespaces/shaper" shaper:fusionaddin="version:1.6.3" width="19.534cm" height="6.705cm" version="1.1" x="0cm" y="0cm" viewBox="0 0 19.534 6.705" enable-background="new 0 0 19.534 6.705" xml:space="preserve"><path d="M19.534,0 L0,0 0,6.705 19.534,6.705 19.534,0z" transform="matrix(1,0,0,-1,-0,6.705)" fill="rgb(0,0,0)" shaper:cutDepth="0.003" stroke-linecap="round" stroke-linejoin="round" /><path d="M1.708,1.0875 a0.1455,0.1455 0 1,1 0.291,0 a0.1455,0.1455 0 1,1 -0.291,0z" transform="matrix(1,0,0,-1,-0,6.705)" fill="rgb(255,255,255)" stroke="rgb(0,0,0)" stroke-width="0.0010cm" stroke-linecap="round" stroke-linejoin="round" shaper:cutDepth="0.003" /><path d="M12.1035,6.2175 L12.1035,0.4875 3.1035,0.4875 3.1035,6.2175 12.1035,6.2175z" transform="matrix(1,0,0,-1,-0,6.705)" fill="rgb(255,255,255)" stroke="rgb(0,0,0)" stroke-width="0.0010cm" stroke-linecap="round" stroke-linejoin="round" shaper:cutDepth="0.003" /><path d="M16.5305,4.9543375 L18.6805,4.9543375 18.6805,1.7506625 16.5305,1.7506625 16.5305,4.9543375z" transform="matrix(1,0,0,-1,-0,6.705)" fill="rgb(255,255,255)" stroke="rgb(0,0,0)" stroke-width="0.0010cm" stroke-linecap="round" stroke-linejoin="round" shaper:cutDepth="0.003" /><path d="M18.185,1.0875 a0.1455,0.1455 0 1,1 0.291,0 a0.1455,0.1455 0 1,1 -0.291,0z" transform="matrix(1,0,0,-1,-0,6.705)" fill="rgb(255,255,255)" stroke="rgb(0,0,0)" stroke-width="0.0010cm" stroke-linecap="round" stroke-linejoin="round" shaper:cutDepth="0.003" /><path d="M12.558,5.6175 a0.1455,0.1455 0 1,1 0.291,0 a0.1455,0.1455 0 1,1 -0.291,0z" transform="matrix(1,0,0,-1,-0,6.705)" fill="rgb(255,255,255)" stroke="rgb(0,0,0)" stroke-width="0.0010cm" stroke-linecap="round" stroke-linejoin="round" shaper:cutDepth="0.003" /><path d="M12.2535,3.3525 a2.05,2.05 0 1,1 4.1,0 a2.05,2.05 0 1,1 -4.1,0z" transform="matrix(1,0,0,-1,-0,6.705)" fill="rgb(255,255,255)" stroke="rgb(0,0,0)" stroke-width="0.0010cm" stroke-linecap="round" stroke-linejoin="round" shaper:cutDepth="0.003" /><path d="M1.708,5.6175 a0.1455,0.1455 0 1,1 0.291,0 a0.1455,0.1455 0 1,1 -0.291,0z" transform="matrix(1,0,0,-1,-0,6.705)" fill="rgb(255,255,255)" stroke="rgb(0,0,0)" stroke-width="0.0010cm" stroke-linecap="round" stroke-linejoin="round" shaper:cutDepth="0.003" /><path d="M18.185,5.6175 a0.1455,0.1455 0 1,1 0.291,0 a0.1455,0.1455 0 1,1 -0.291,0z" transform="matrix(1,0,0,-1,-0,6.705)" fill="rgb(255,255,255)" stroke="rgb(0,0,0)" stroke-width="0.0010cm" stroke-linecap="round" stroke-linejoin="round" shaper:cutDepth="0.003" /><path d="M12.558,1.0875 a0.1455,0.1455 0 1,1 0.291,0 a0.1455,0.1455 0 1,1 -0.291,0z" transform="matrix(1,0,0,-1,-0,6.705)" fill="rgb(255,255,255)" stroke="rgb(0,0,0)" stroke-width="0.0010cm" stroke-linecap="round" stroke-linejoin="round" shaper:cutDepth="0.003" /></svg>